<?xml version="1.0" encoding="UTF-8"?>
<svg id="Layer_1" data-name="Layer 1" xmlns="http://www.w3.org/2000/svg" viewBox="0 0 254.15 400">
  <defs>
    <style>
      .cls-1 {
        fill: none;
      }

      .cls-2 {
        fill: #e95420;
      }

      .cls-3 {
        fill: #fff;
      }
    </style>
  </defs>
  <rect class="cls-2" width="254.15" height="400"/>
  <rect class="cls-1" x="30.26" y="169.43" width="193.64" height="193.64"/>
  <circle class="cls-3" cx="58.11" cy="256" r="26.31"/>
  <circle class="cls-3" cx="167.69" cy="198.31" r="26.31"/>
  <path class="cls-3" d="m117.45,323.72c-18.95-4.06-34.79-16.17-43.7-33.33-7.01,3.19-14.9,4.16-22.5,2.77,10.78,26.46,33.62,45.67,61.67,51.68,6.16,1.32,12.43,1.96,18.68,1.92-4.83-6.35-7.52-14.01-7.7-22-2.17-.24-4.33-.59-6.45-1.05Z"/>
  <circle class="cls-3" cx="161.76" cy="323.87" r="26.31"/>
  <path class="cls-3" d="m198.37,314.2c8.18-10.31,13.94-22.51,16.72-35.47,4.84-22.6.32-46.3-12.4-65.54-3.03,7.14-8.18,13.18-14.8,17.33,7.1,13.38,9.26,28.83,6.08,43.68-1.56,7.27-4.31,14.12-8.19,20.39,6.19,5.08,10.57,11.91,12.59,19.6Z"/>
  <path class="cls-3" d="m56.08,218.27c.67-.04,1.34-.05,2-.05,2.66,0,5.31.28,7.94.85,4.29.92,8.32,2.54,12.01,4.84,11.85-17.04,30.96-27.26,51.67-27.63.11-1.99.38-3.97.79-5.92,1.21-5.64,3.67-10.91,7.19-15.42-33.09-2.62-65.24,14.45-81.61,43.35Z"/>
</svg>